<svg xmlns="http://www.w3.org/2000/svg" width="13" height="13" viewBox="0 0 13 13">
    <g fill="none" fill-rule="evenodd">
        <path fill="#6E6E6E"
              d="M2,2 L11,2 C11.5522847,2 12,2.44771525 12,3 L12,10 C12,10.5522847 11.5522847,11 11,11 L2,11 C1.44771525,11 1,10.5522847 1,10 L1,3 C1,2.44771525 1.44771525,2 2,2 Z"/>
        <path fill="#FFFFFF"
              d="M3.5,4 L9.5,4 C9.77614237,4 10,4.22385763 10,4.5 C10,4.77614237 9.77614237,5 9.5,5 L3.5,5 C3.22385763,5 3,4.77614237 3,4.5 C3,4.22385763 3.22385763,4 3.5,4 Z"/>
        <path fill="#FFFFFF"
              d="M3.5,6 L9.5,6 C9.77614237,6 10,6.22385763 10,6.5 C10,6.77614237 9.77614237,7 9.5,7 L3.5,7 C3.22385763,7 3,6.77614237 3,6.5 C3,6.22385763 3.22385763,6 3.5,6 Z"/>
        <path fill="#FFFFFF"
              d="M3.5,8 L7.5,8 C7.77614237,8 8,8.22385763 8,8.5 C8,8.77614237 7.77614237,9 7.5,9 L3.5,9 C3.22385763,9 3,8.77614237 3,8.5 C3,8.22385763 3.22385763,8 3.5,8 Z"/>
    </g>
</svg> 